<svg width="846" height="436" viewBox="0 0 846 436" fill="none" xmlns="http://www.w3.org/2000/svg">
<g clip-path="url(#clip0)">
<path d="M8 425.651V100.742L320 6.34731V330.759L8 425.651Z" fill="#FFB800" stroke="white" stroke-width="2"/>
<path d="M330.46 298.752V306.325H338.715V308.762H330.46V316.562H339.69V319H327.503V296.315H339.69V298.752H330.46ZM365.583 300.865C366.969 300.865 368.204 301.157 369.288 301.742C370.371 302.306 371.227 303.162 371.855 304.31C372.483 305.458 372.798 306.856 372.798 308.502V319H369.873V308.925C369.873 307.148 369.428 305.794 368.54 304.862C367.673 303.909 366.493 303.432 364.998 303.432C363.459 303.432 362.235 303.931 361.325 304.927C360.415 305.902 359.96 307.322 359.96 309.185V319H357.035V308.925C357.035 307.148 356.591 305.794 355.703 304.862C354.836 303.909 353.655 303.432 352.16 303.432C350.622 303.432 349.398 303.931 348.488 304.927C347.578 305.902 347.123 307.322 347.123 309.185V319H344.165V301.19H347.123V303.757C347.708 302.826 348.488 302.111 349.463 301.612C350.459 301.114 351.553 300.865 352.745 300.865C354.24 300.865 355.562 301.201 356.71 301.872C357.858 302.544 358.714 303.53 359.278 304.83C359.776 303.573 360.599 302.598 361.748 301.905C362.896 301.212 364.174 300.865 365.583 300.865ZM380.606 304.472C381.191 303.454 382.058 302.609 383.206 301.937C384.376 301.244 385.731 300.897 387.269 300.897C388.851 300.897 390.281 301.277 391.559 302.035C392.859 302.793 393.877 303.866 394.614 305.252C395.351 306.617 395.719 308.21 395.719 310.03C395.719 311.828 395.351 313.432 394.614 314.84C393.877 316.248 392.859 317.342 391.559 318.122C390.281 318.903 388.851 319.293 387.269 319.293C385.752 319.293 384.409 318.957 383.239 318.285C382.091 317.592 381.213 316.736 380.606 315.717V327.45H377.649V301.19H380.606V304.472ZM392.696 310.03C392.696 308.687 392.426 307.517 391.884 306.52C391.342 305.523 390.606 304.765 389.674 304.245C388.764 303.725 387.756 303.465 386.651 303.465C385.568 303.465 384.561 303.736 383.629 304.277C382.719 304.797 381.982 305.567 381.419 306.585C380.877 307.582 380.606 308.741 380.606 310.062C380.606 311.406 380.877 312.587 381.419 313.605C381.982 314.602 382.719 315.371 383.629 315.912C384.561 316.432 385.568 316.692 386.651 316.692C387.756 316.692 388.764 316.432 389.674 315.912C390.606 315.371 391.342 314.602 391.884 313.605C392.426 312.587 392.696 311.395 392.696 310.03ZM402.569 304.082C403.089 303.064 403.826 302.273 404.779 301.71C405.754 301.147 406.935 300.865 408.322 300.865V303.92H407.542C404.227 303.92 402.569 305.718 402.569 309.315V319H399.612V301.19H402.569V304.082ZM427.986 309.412C427.986 309.976 427.953 310.572 427.888 311.2H413.653C413.762 312.955 414.358 314.331 415.441 315.327C416.546 316.302 417.878 316.79 419.438 316.79C420.717 316.79 421.778 316.497 422.623 315.912C423.49 315.306 424.097 314.504 424.443 313.507H427.628C427.152 315.219 426.198 316.617 424.768 317.7C423.338 318.762 421.562 319.293 419.438 319.293C417.748 319.293 416.232 318.913 414.888 318.155C413.567 317.397 412.527 316.324 411.768 314.938C411.01 313.529 410.631 311.904 410.631 310.062C410.631 308.221 410.999 306.607 411.736 305.22C412.473 303.833 413.502 302.772 414.823 302.035C416.167 301.277 417.705 300.897 419.438 300.897C421.128 300.897 422.623 301.266 423.923 302.002C425.223 302.739 426.22 303.757 426.913 305.057C427.628 306.336 427.986 307.787 427.986 309.412ZM424.931 308.795C424.931 307.668 424.682 306.704 424.183 305.902C423.685 305.079 423.003 304.462 422.136 304.05C421.291 303.617 420.348 303.4 419.308 303.4C417.813 303.4 416.535 303.877 415.473 304.83C414.433 305.783 413.838 307.105 413.686 308.795H424.931ZM422.493 296.152L415.571 299.857V297.647L422.493 293.585V296.152ZM438.195 319.293C436.83 319.293 435.606 319.065 434.522 318.61C433.439 318.133 432.583 317.483 431.955 316.66C431.326 315.815 430.98 314.851 430.915 313.767H433.97C434.056 314.656 434.468 315.382 435.205 315.945C435.963 316.508 436.949 316.79 438.162 316.79C439.289 316.79 440.177 316.541 440.827 316.042C441.477 315.544 441.802 314.916 441.802 314.157C441.802 313.377 441.456 312.803 440.762 312.435C440.069 312.045 438.996 311.666 437.545 311.297C436.223 310.951 435.14 310.604 434.295 310.257C433.471 309.889 432.756 309.358 432.15 308.665C431.565 307.95 431.272 307.018 431.272 305.87C431.272 304.96 431.543 304.126 432.085 303.367C432.626 302.609 433.396 302.013 434.392 301.58C435.389 301.125 436.526 300.897 437.805 300.897C439.776 300.897 441.369 301.396 442.582 302.392C443.796 303.389 444.446 304.754 444.532 306.487H441.575C441.51 305.556 441.131 304.808 440.437 304.245C439.766 303.682 438.856 303.4 437.707 303.4C436.646 303.4 435.801 303.627 435.172 304.082C434.544 304.537 434.23 305.133 434.23 305.87C434.23 306.455 434.414 306.942 434.782 307.332C435.172 307.701 435.649 308.004 436.212 308.242C436.797 308.459 437.599 308.708 438.617 308.99C439.896 309.337 440.936 309.683 441.737 310.03C442.539 310.355 443.221 310.853 443.785 311.525C444.37 312.197 444.673 313.074 444.695 314.157C444.695 315.132 444.424 316.01 443.882 316.79C443.341 317.57 442.571 318.187 441.575 318.642C440.6 319.076 439.473 319.293 438.195 319.293ZM452.477 303.627V314.125C452.477 314.992 452.661 315.609 453.03 315.977C453.398 316.324 454.037 316.497 454.947 316.497H457.125V319H454.46C452.813 319 451.578 318.621 450.755 317.862C449.931 317.104 449.52 315.858 449.52 314.125V303.627H447.212V301.19H449.52V296.705H452.477V301.19H457.125V303.627H452.477ZM462.236 298.297C461.672 298.297 461.196 298.102 460.806 297.712C460.416 297.322 460.221 296.846 460.221 296.282C460.221 295.719 460.416 295.242 460.806 294.852C461.196 294.462 461.672 294.267 462.236 294.267C462.777 294.267 463.232 294.462 463.601 294.852C463.991 295.242 464.186 295.719 464.186 296.282C464.186 296.846 463.991 297.322 463.601 297.712C463.232 298.102 462.777 298.297 462.236 298.297ZM463.666 301.19V319H460.708V301.19H463.666ZM490.124 300.865C491.51 300.865 492.745 301.157 493.829 301.742C494.912 302.306 495.768 303.162 496.396 304.31C497.024 305.458 497.339 306.856 497.339 308.502V319H494.414V308.925C494.414 307.148 493.969 305.794 493.081 304.862C492.214 303.909 491.034 303.432 489.539 303.432C488 303.432 486.776 303.931 485.866 304.927C484.956 305.902 484.501 307.322 484.501 309.185V319H481.576V308.925C481.576 307.148 481.132 305.794 480.244 304.862C479.377 303.909 478.196 303.432 476.701 303.432C475.163 303.432 473.939 303.931 473.029 304.927C472.119 305.902 471.664 307.322 471.664 309.185V319H468.706V301.19H471.664V303.757C472.249 302.826 473.029 302.111 474.004 301.612C475 301.114 476.094 300.865 477.286 300.865C478.781 300.865 480.103 301.201 481.251 301.872C482.399 302.544 483.255 303.53 483.819 304.83C484.317 303.573 485.14 302.598 486.289 301.905C487.437 301.212 488.715 300.865 490.124 300.865ZM509.958 319.293C508.289 319.293 506.773 318.913 505.408 318.155C504.064 317.397 503.003 316.324 502.223 314.938C501.464 313.529 501.085 311.904 501.085 310.062C501.085 308.242 501.475 306.639 502.255 305.252C503.057 303.844 504.14 302.772 505.505 302.035C506.87 301.277 508.398 300.897 510.088 300.897C511.778 300.897 513.305 301.277 514.67 302.035C516.035 302.772 517.108 303.833 517.888 305.22C518.689 306.607 519.09 308.221 519.09 310.062C519.09 311.904 518.678 313.529 517.855 314.938C517.053 316.324 515.959 317.397 514.573 318.155C513.186 318.913 511.648 319.293 509.958 319.293ZM509.958 316.692C511.019 316.692 512.016 316.443 512.948 315.945C513.879 315.447 514.627 314.699 515.19 313.702C515.775 312.706 516.068 311.492 516.068 310.062C516.068 308.632 515.786 307.419 515.223 306.422C514.659 305.426 513.923 304.689 513.013 304.212C512.103 303.714 511.117 303.465 510.055 303.465C508.972 303.465 507.975 303.714 507.065 304.212C506.177 304.689 505.462 305.426 504.92 306.422C504.378 307.419 504.108 308.632 504.108 310.062C504.108 311.514 504.368 312.738 504.888 313.735C505.429 314.732 506.144 315.479 507.033 315.977C507.921 316.454 508.896 316.692 509.958 316.692ZM534.601 304.472C535.186 303.454 536.052 302.609 537.201 301.937C538.371 301.244 539.725 300.897 541.263 300.897C542.845 300.897 544.275 301.277 545.553 302.035C546.853 302.793 547.871 303.866 548.608 305.252C549.345 306.617 549.713 308.21 549.713 310.03C549.713 311.828 549.345 313.432 548.608 314.84C547.871 316.248 546.853 317.342 545.553 318.122C544.275 318.903 542.845 319.293 541.263 319.293C539.746 319.293 538.403 318.957 537.233 318.285C536.085 317.592 535.207 316.736 534.601 315.717V327.45H531.643V301.19H534.601V304.472ZM546.691 310.03C546.691 308.687 546.42 307.517 545.878 306.52C545.336 305.523 544.6 304.765 543.668 304.245C542.758 303.725 541.751 303.465 540.646 303.465C539.562 303.465 538.555 303.736 537.623 304.277C536.713 304.797 535.976 305.567 535.413 306.585C534.871 307.582 534.601 308.741 534.601 310.062C534.601 311.406 534.871 312.587 535.413 313.605C535.976 314.602 536.713 315.371 537.623 315.912C538.555 316.432 539.562 316.692 540.646 316.692C541.751 316.692 542.758 316.432 543.668 315.912C544.6 315.371 545.336 314.602 545.878 313.605C546.42 312.587 546.691 311.395 546.691 310.03ZM552.501 310.03C552.501 308.21 552.869 306.617 553.606 305.252C554.343 303.866 555.35 302.793 556.629 302.035C557.929 301.277 559.369 300.897 560.951 300.897C562.511 300.897 563.865 301.233 565.014 301.905C566.162 302.577 567.018 303.422 567.581 304.44V301.19H570.571V319H567.581V315.685C566.996 316.725 566.119 317.592 564.949 318.285C563.8 318.957 562.457 319.293 560.919 319.293C559.337 319.293 557.907 318.903 556.629 318.122C555.35 317.342 554.343 316.248 553.606 314.84C552.869 313.432 552.501 311.828 552.501 310.03ZM567.581 310.062C567.581 308.719 567.31 307.549 566.769 306.552C566.227 305.556 565.49 304.797 564.559 304.277C563.649 303.736 562.641 303.465 561.536 303.465C560.431 303.465 559.424 303.725 558.514 304.245C557.604 304.765 556.878 305.523 556.336 306.52C555.794 307.517 555.524 308.687 555.524 310.03C555.524 311.395 555.794 312.587 556.336 313.605C556.878 314.602 557.604 315.371 558.514 315.912C559.424 316.432 560.431 316.692 561.536 316.692C562.641 316.692 563.649 316.432 564.559 315.912C565.49 315.371 566.227 314.602 566.769 313.605C567.31 312.587 567.581 311.406 567.581 310.062ZM578.526 304.082C579.046 303.064 579.783 302.273 580.736 301.71C581.711 301.147 582.892 300.865 584.279 300.865V303.92H583.499C580.184 303.92 578.526 305.718 578.526 309.315V319H575.569V301.19H578.526V304.082ZM586.588 310.03C586.588 308.21 586.956 306.617 587.693 305.252C588.43 303.866 589.437 302.793 590.715 302.035C592.015 301.277 593.456 300.897 595.038 300.897C596.598 300.897 597.952 301.233 599.1 301.905C600.249 302.577 601.105 303.422 601.668 304.44V301.19H604.658V319H601.668V315.685C601.083 316.725 600.205 317.592 599.035 318.285C597.887 318.957 596.544 319.293 595.005 319.293C593.424 319.293 591.994 318.903 590.715 318.122C589.437 317.342 588.43 316.248 587.693 314.84C586.956 313.432 586.588 311.828 586.588 310.03ZM601.668 310.062C601.668 308.719 601.397 307.549 600.855 306.552C600.314 305.556 599.577 304.797 598.645 304.277C597.735 303.736 596.728 303.465 595.623 303.465C594.518 303.465 593.51 303.725 592.6 304.245C591.69 304.765 590.965 305.523 590.423 306.52C589.881 307.517 589.61 308.687 589.61 310.03C589.61 311.395 589.881 312.587 590.423 313.605C590.965 314.602 591.69 315.371 592.6 315.912C593.51 316.432 594.518 316.692 595.623 316.692C596.728 316.692 597.735 316.432 598.645 315.912C599.577 315.371 600.314 314.602 600.855 313.605C601.397 312.587 601.668 311.406 601.668 310.062ZM617.215 310.03C617.215 308.21 617.584 306.617 618.32 305.252C619.057 303.866 620.065 302.793 621.343 302.035C622.643 301.277 624.095 300.897 625.698 300.897C627.236 300.897 628.58 301.244 629.728 301.937C630.898 302.609 631.754 303.443 632.295 304.44V301.19H635.285V327.45H632.295V315.717C631.732 316.714 630.865 317.559 629.695 318.252C628.525 318.946 627.16 319.293 625.6 319.293C624.04 319.293 622.621 318.903 621.343 318.122C620.065 317.342 619.057 316.248 618.32 314.84C617.584 313.432 617.215 311.828 617.215 310.03ZM632.295 310.062C632.295 308.719 632.025 307.549 631.483 306.552C630.941 305.556 630.205 304.797 629.273 304.277C628.363 303.736 627.355 303.465 626.25 303.465C625.145 303.465 624.138 303.725 623.228 304.245C622.318 304.765 621.592 305.523 621.05 306.52C620.509 307.517 620.238 308.687 620.238 310.03C620.238 311.395 620.509 312.587 621.05 313.605C621.592 314.602 622.318 315.371 623.228 315.912C624.138 316.432 625.145 316.692 626.25 316.692C627.355 316.692 628.363 316.432 629.273 315.912C630.205 315.371 630.941 314.602 631.483 313.605C632.025 312.587 632.295 311.406 632.295 310.062ZM656.078 301.19V319H653.121V316.367C652.557 317.277 651.767 317.992 650.748 318.512C649.752 319.011 648.647 319.26 647.433 319.26C646.047 319.26 644.801 318.978 643.696 318.415C642.591 317.83 641.713 316.963 641.063 315.815C640.435 314.667 640.121 313.269 640.121 311.622V301.19H643.046V311.232C643.046 312.987 643.49 314.342 644.378 315.295C645.267 316.227 646.48 316.692 648.018 316.692C649.6 316.692 650.846 316.205 651.756 315.23C652.666 314.255 653.121 312.836 653.121 310.972V301.19H656.078ZM677.322 309.412C677.322 309.976 677.289 310.572 677.224 311.2H662.989C663.098 312.955 663.694 314.331 664.777 315.327C665.882 316.302 667.214 316.79 668.774 316.79C670.053 316.79 671.114 316.497 671.959 315.912C672.826 315.306 673.433 314.504 673.779 313.507H676.964C676.488 315.219 675.534 316.617 674.104 317.7C672.674 318.762 670.898 319.293 668.774 319.293C667.084 319.293 665.568 318.913 664.224 318.155C662.903 317.397 661.863 316.324 661.104 314.938C660.346 313.529 659.967 311.904 659.967 310.062C659.967 308.221 660.335 306.607 661.072 305.22C661.809 303.833 662.838 302.772 664.159 302.035C665.503 301.277 667.041 300.897 668.774 300.897C670.464 300.897 671.959 301.266 673.259 302.002C674.559 302.739 675.556 303.757 676.249 305.057C676.964 306.336 677.322 307.787 677.322 309.412ZM674.267 308.795C674.267 307.668 674.018 306.704 673.519 305.902C673.021 305.079 672.339 304.462 671.472 304.05C670.627 303.617 669.684 303.4 668.644 303.4C667.149 303.4 665.871 303.877 664.809 304.83C663.769 305.783 663.174 307.105 663.022 308.795H674.267ZM702.643 300.865C704.03 300.865 705.265 301.157 706.348 301.742C707.431 302.306 708.287 303.162 708.916 304.31C709.544 305.458 709.858 306.856 709.858 308.502V319H706.933V308.925C706.933 307.148 706.489 305.794 705.601 304.862C704.734 303.909 703.553 303.432 702.058 303.432C700.52 303.432 699.296 303.931 698.386 304.927C697.476 305.902 697.021 307.322 697.021 309.185V319H694.096V308.925C694.096 307.148 693.651 305.794 692.763 304.862C691.896 303.909 690.716 303.432 689.221 303.432C687.682 303.432 686.458 303.931 685.548 304.927C684.638 305.902 684.183 307.322 684.183 309.185V319H681.226V301.19H684.183V303.757C684.768 302.826 685.548 302.111 686.523 301.612C687.52 301.114 688.614 300.865 689.806 300.865C691.301 300.865 692.622 301.201 693.771 301.872C694.919 302.544 695.775 303.53 696.338 304.83C696.836 303.573 697.66 302.598 698.808 301.905C699.956 301.212 701.235 300.865 702.643 300.865ZM726.332 304.472C726.917 303.454 727.783 302.609 728.932 301.937C730.102 301.244 731.456 300.897 732.994 300.897C734.576 300.897 736.006 301.277 737.284 302.035C738.584 302.793 739.602 303.866 740.339 305.252C741.076 306.617 741.444 308.21 741.444 310.03C741.444 311.828 741.076 313.432 740.339 314.84C739.602 316.248 738.584 317.342 737.284 318.122C736.006 318.903 734.576 319.293 732.994 319.293C731.477 319.293 730.134 318.957 728.964 318.285C727.816 317.592 726.938 316.736 726.332 315.717V327.45H723.374V301.19H726.332V304.472ZM738.422 310.03C738.422 308.687 738.151 307.517 737.609 306.52C737.067 305.523 736.331 304.765 735.399 304.245C734.489 303.725 733.482 303.465 732.377 303.465C731.293 303.465 730.286 303.736 729.354 304.277C728.444 304.797 727.707 305.567 727.144 306.585C726.602 307.582 726.332 308.741 726.332 310.062C726.332 311.406 726.602 312.587 727.144 313.605C727.707 314.602 728.444 315.371 729.354 315.912C730.286 316.432 731.293 316.692 732.377 316.692C733.482 316.692 734.489 316.432 735.399 315.912C736.331 315.371 737.067 314.602 737.609 313.605C738.151 312.587 738.422 311.395 738.422 310.03ZM748.294 304.082C748.814 303.064 749.551 302.273 750.504 301.71C751.479 301.147 752.66 300.865 754.047 300.865V303.92H753.267C749.952 303.92 748.294 305.718 748.294 309.315V319H745.337V301.19H748.294V304.082ZM773.711 309.412C773.711 309.976 773.678 310.572 773.613 311.2H759.378C759.487 312.955 760.083 314.331 761.166 315.327C762.271 316.302 763.603 316.79 765.163 316.79C766.442 316.79 767.503 316.497 768.348 315.912C769.215 315.306 769.822 314.504 770.168 313.507H773.353C772.877 315.219 771.923 316.617 770.493 317.7C769.063 318.762 767.287 319.293 765.163 319.293C763.473 319.293 761.957 318.913 760.613 318.155C759.292 317.397 758.252 316.324 757.493 314.938C756.735 313.529 756.356 311.904 756.356 310.062C756.356 308.221 756.724 306.607 757.461 305.22C758.198 303.833 759.227 302.772 760.548 302.035C761.892 301.277 763.43 300.897 765.163 300.897C766.853 300.897 768.348 301.266 769.648 302.002C770.948 302.739 771.945 303.757 772.638 305.057C773.353 306.336 773.711 307.787 773.711 309.412ZM770.656 308.795C770.656 307.668 770.407 306.704 769.908 305.902C769.41 305.079 768.728 304.462 767.861 304.05C767.016 303.617 766.073 303.4 765.033 303.4C763.538 303.4 762.26 303.877 761.198 304.83C760.158 305.783 759.563 307.105 759.411 308.795H770.656ZM776.51 310.062C776.51 308.221 776.878 306.617 777.615 305.252C778.351 303.866 779.37 302.793 780.67 302.035C781.991 301.277 783.497 300.897 785.187 300.897C787.376 300.897 789.174 301.428 790.582 302.49C792.012 303.552 792.955 305.025 793.41 306.91H790.225C789.921 305.827 789.326 304.971 788.437 304.342C787.571 303.714 786.487 303.4 785.187 303.4C783.497 303.4 782.132 303.985 781.092 305.155C780.052 306.303 779.532 307.939 779.532 310.062C779.532 312.207 780.052 313.865 781.092 315.035C782.132 316.205 783.497 316.79 785.187 316.79C786.487 316.79 787.571 316.487 788.437 315.88C789.304 315.273 789.9 314.407 790.225 313.28H793.41C792.933 315.1 791.98 316.562 790.55 317.667C789.12 318.751 787.332 319.293 785.187 319.293C783.497 319.293 781.991 318.913 780.67 318.155C779.37 317.397 778.351 316.324 777.615 314.938C776.878 313.551 776.51 311.926 776.51 310.062ZM798.884 298.297C798.32 298.297 797.844 298.102 797.454 297.712C797.064 297.322 796.869 296.846 796.869 296.282C796.869 295.719 797.064 295.242 797.454 294.852C797.844 294.462 798.32 294.267 798.884 294.267C799.425 294.267 799.88 294.462 800.249 294.852C800.639 295.242 800.834 295.719 800.834 296.282C800.834 296.846 800.639 297.322 800.249 297.712C799.88 298.102 799.425 298.297 798.884 298.297ZM800.314 301.19V319H797.356V301.19H800.314ZM811.659 319.293C810.294 319.293 809.07 319.065 807.987 318.61C806.903 318.133 806.047 317.483 805.419 316.66C804.791 315.815 804.444 314.851 804.379 313.767H807.434C807.521 314.656 807.932 315.382 808.669 315.945C809.427 316.508 810.413 316.79 811.627 316.79C812.753 316.79 813.642 316.541 814.292 316.042C814.942 315.544 815.267 314.916 815.267 314.157C815.267 313.377 814.92 312.803 814.227 312.435C813.533 312.045 812.461 311.666 811.009 311.297C809.687 310.951 808.604 310.604 807.759 310.257C806.936 309.889 806.221 309.358 805.614 308.665C805.029 307.95 804.737 307.018 804.737 305.87C804.737 304.96 805.007 304.126 805.549 303.367C806.091 302.609 806.86 302.013 807.857 301.58C808.853 301.125 809.991 300.897 811.269 300.897C813.241 300.897 814.833 301.396 816.047 302.392C817.26 303.389 817.91 304.754 817.997 306.487H815.039C814.974 305.556 814.595 304.808 813.902 304.245C813.23 303.682 812.32 303.4 811.172 303.4C810.11 303.4 809.265 303.627 808.637 304.082C808.008 304.537 807.694 305.133 807.694 305.87C807.694 306.455 807.878 306.942 808.247 307.332C808.637 307.701 809.113 308.004 809.677 308.242C810.262 308.459 811.063 308.708 812.082 308.99C813.36 309.337 814.4 309.683 815.202 310.03C816.003 310.355 816.686 310.853 817.249 311.525C817.834 312.197 818.137 313.074 818.159 314.157C818.159 315.132 817.888 316.01 817.347 316.79C816.805 317.57 816.036 318.187 815.039 318.642C814.064 319.076 812.937 319.293 811.659 319.293ZM821.229 310.03C821.229 308.21 821.597 306.617 822.334 305.252C823.071 303.866 824.078 302.793 825.357 302.035C826.657 301.277 828.097 300.897 829.679 300.897C831.239 300.897 832.593 301.233 833.742 301.905C834.89 302.577 835.746 303.422 836.309 304.44V301.19H839.299V319H836.309V315.685C835.724 316.725 834.847 317.592 833.677 318.285C832.528 318.957 831.185 319.293 829.647 319.293C828.065 319.293 826.635 318.903 825.357 318.122C824.078 317.342 823.071 316.248 822.334 314.84C821.597 313.432 821.229 311.828 821.229 310.03ZM836.309 310.062C836.309 308.719 836.038 307.549 835.497 306.552C834.955 305.556 834.218 304.797 833.287 304.277C832.377 303.736 831.369 303.465 830.264 303.465C829.159 303.465 828.152 303.725 827.242 304.245C826.332 304.765 825.606 305.523 825.064 306.52C824.522 307.517 824.252 308.687 824.252 310.03C824.252 311.395 824.522 312.587 825.064 313.605C825.606 314.602 826.332 315.371 827.242 315.912C828.152 316.432 829.159 316.692 830.264 316.692C831.369 316.692 832.377 316.432 833.287 315.912C834.218 315.371 834.955 314.602 835.497 313.605C836.038 312.587 836.309 311.406 836.309 310.062Z" fill="#9A1515"/>
<path d="M52.36 126.1V223.56C52.36 235.147 55.3667 243.873 61.38 249.74C67.54 255.607 76.0467 258.54 86.9 258.54C97.9 258.54 106.407 255.607 112.42 249.74C118.58 243.873 121.66 235.147 121.66 223.56V126.1H146.74V223.12C146.74 235.587 144.027 246.147 138.6 254.8C133.173 263.453 125.913 269.907 116.82 274.16C107.727 278.413 97.68 280.54 86.68 280.54C75.68 280.54 65.6333 278.413 56.54 274.16C47.5933 269.907 40.48 263.453 35.2 254.8C29.92 246.147 27.28 235.587 27.28 223.12V126.1H52.36ZM204.475 175.6C208.728 170.027 214.521 165.333 221.855 161.52C229.188 157.707 237.475 155.8 246.715 155.8C257.275 155.8 266.881 158.44 275.535 163.72C284.335 168.853 291.228 176.113 296.215 185.5C301.201 194.887 303.695 205.667 303.695 217.84C303.695 230.013 301.201 240.94 296.215 250.62C291.228 260.153 284.335 267.633 275.535 273.06C266.881 278.34 257.275 280.98 246.715 280.98C237.475 280.98 229.261 279.147 222.075 275.48C214.888 271.667 209.021 266.973 204.475 261.4V336.64H179.395V157.78H204.475V175.6ZM278.175 217.84C278.175 209.48 276.415 202.293 272.895 196.28C269.521 190.12 264.975 185.5 259.255 182.42C253.681 179.193 247.668 177.58 241.215 177.58C234.908 177.58 228.895 179.193 223.175 182.42C217.601 185.647 213.055 190.34 209.535 196.5C206.161 202.66 204.475 209.92 204.475 218.28C204.475 226.64 206.161 233.973 209.535 240.28C213.055 246.44 217.601 251.133 223.175 254.36C228.895 257.587 234.908 259.2 241.215 259.2C247.668 259.2 253.681 257.587 259.255 254.36C264.975 250.987 269.521 246.147 272.895 239.84C276.415 233.533 278.175 226.2 278.175 217.84ZM418.476 126.1V146.56H353.576V191.66H404.176V212.12H353.576V279H328.496V126.1H418.476ZM494.299 280.98C482.859 280.98 472.519 278.413 463.279 273.28C454.039 268 446.779 260.667 441.499 251.28C436.219 241.747 433.579 230.747 433.579 218.28C433.579 205.96 436.292 195.033 441.719 185.5C447.145 175.967 454.552 168.633 463.939 163.5C473.325 158.367 483.812 155.8 495.399 155.8C506.985 155.8 517.472 158.367 526.859 163.5C536.245 168.633 543.652 175.967 549.079 185.5C554.505 195.033 557.219 205.96 557.219 218.28C557.219 230.6 554.432 241.527 548.859 251.06C543.285 260.593 535.659 268 525.979 273.28C516.445 278.413 505.885 280.98 494.299 280.98ZM494.299 259.2C500.752 259.2 506.765 257.66 512.339 254.58C518.059 251.5 522.679 246.88 526.199 240.72C529.719 234.56 531.479 227.08 531.479 218.28C531.479 209.48 529.792 202.073 526.419 196.06C523.045 189.9 518.572 185.28 512.999 182.2C507.425 179.12 501.412 177.58 494.959 177.58C488.505 177.58 482.492 179.12 476.919 182.2C471.492 185.28 467.165 189.9 463.939 196.06C460.712 202.073 459.099 209.48 459.099 218.28C459.099 231.333 462.399 241.453 468.999 248.64C475.745 255.68 484.179 259.2 494.299 259.2ZM691.792 157.78V279H666.712V264.7C662.752 269.687 657.545 273.647 651.092 276.58C644.785 279.367 638.038 280.76 630.852 280.76C621.318 280.76 612.738 278.78 605.112 274.82C597.632 270.86 591.692 264.993 587.292 257.22C583.038 249.447 580.912 240.06 580.912 229.06V157.78H605.772V225.32C605.772 236.173 608.485 244.533 613.912 250.4C619.338 256.12 626.745 258.98 636.132 258.98C645.518 258.98 652.925 256.12 658.352 250.4C663.925 244.533 666.712 236.173 666.712 225.32V157.78H691.792ZM749.963 175.38C753.629 169.22 758.469 164.453 764.483 161.08C770.643 157.56 777.903 155.8 786.263 155.8V181.76H779.883C770.056 181.76 762.576 184.253 757.443 189.24C752.456 194.227 749.963 202.88 749.963 215.2V279H724.883V157.78H749.963V175.38ZM819.436 280.54C814.89 280.54 811.076 279 807.996 275.92C804.916 272.84 803.376 269.027 803.376 264.48C803.376 259.933 804.916 256.12 807.996 253.04C811.076 249.96 814.89 248.42 819.436 248.42C823.836 248.42 827.576 249.96 830.656 253.04C833.736 256.12 835.276 259.933 835.276 264.48C835.276 269.027 833.736 272.84 830.656 275.92C827.576 279 823.836 280.54 819.436 280.54Z" fill="#D50D3D"/>
</g>
<defs>
<clipPath id="clip0">
<rect width="846" height="436" fill="white"/>
</clipPath>
</defs>
</svg>
