<svg width="359" height="359" viewBox="0 0 359 359" fill="none" xmlns="http://www.w3.org/2000/svg">
<g clip-path="url(#clip0)">
<circle cx="178.5" cy="181.5" r="167.5" fill="#D50D3D"/>
<path d="M72.36 98.1V195.56C72.36 207.147 75.3667 215.873 81.38 221.74C87.54 227.607 96.0467 230.54 106.9 230.54C117.9 230.54 126.407 227.607 132.42 221.74C138.58 215.873 141.66 207.147 141.66 195.56V98.1H166.74V195.12C166.74 207.587 164.027 218.147 158.6 226.8C153.173 235.453 145.913 241.907 136.82 246.16C127.727 250.413 117.68 252.54 106.68 252.54C95.68 252.54 85.6333 250.413 76.54 246.16C67.5933 241.907 60.48 235.453 55.2 226.8C49.92 218.147 47.28 207.587 47.28 195.12V98.1H72.36ZM224.475 147.6C228.728 142.027 234.521 137.333 241.855 133.52C249.188 129.707 257.475 127.8 266.715 127.8C277.275 127.8 286.881 130.44 295.535 135.72C304.335 140.853 311.228 148.113 316.215 157.5C321.201 166.887 323.695 177.667 323.695 189.84C323.695 202.013 321.201 212.94 316.215 222.62C311.228 232.153 304.335 239.633 295.535 245.06C286.881 250.34 277.275 252.98 266.715 252.98C257.475 252.98 249.261 251.147 242.075 247.48C234.888 243.667 229.021 238.973 224.475 233.4V308.64H199.395V129.78H224.475V147.6ZM298.175 189.84C298.175 181.48 296.415 174.293 292.895 168.28C289.521 162.12 284.975 157.5 279.255 154.42C273.681 151.193 267.668 149.58 261.215 149.58C254.908 149.58 248.895 151.193 243.175 154.42C237.601 157.647 233.055 162.34 229.535 168.5C226.161 174.66 224.475 181.92 224.475 190.28C224.475 198.64 226.161 205.973 229.535 212.28C233.055 218.44 237.601 223.133 243.175 226.36C248.895 229.587 254.908 231.2 261.215 231.2C267.668 231.2 273.681 229.587 279.255 226.36C284.975 222.987 289.521 218.147 292.895 211.84C296.415 205.533 298.175 198.2 298.175 189.84Z" fill="#F4F4F4"/>
</g>
<defs>
<clipPath id="clip0">
<rect width="359" height="359" fill="white"/>
</clipPath>
</defs>
</svg>
