<svg width="882" height="367" viewBox="0 0 882 367" fill="none" xmlns="http://www.w3.org/2000/svg">
<g clip-path="url(#clip0)">
<circle cx="178.5" cy="185.5" r="167.5" fill="#D50D3D"/>
<path d="M76.36 102.1V199.56C76.36 211.147 79.3667 219.873 85.38 225.74C91.54 231.607 100.047 234.54 110.9 234.54C121.9 234.54 130.407 231.607 136.42 225.74C142.58 219.873 145.66 211.147 145.66 199.56V102.1H170.74V199.12C170.74 211.587 168.027 222.147 162.6 230.8C157.173 239.453 149.913 245.907 140.82 250.16C131.727 254.413 121.68 256.54 110.68 256.54C99.68 256.54 89.6333 254.413 80.54 250.16C71.5933 245.907 64.48 239.453 59.2 230.8C53.92 222.147 51.28 211.587 51.28 199.12V102.1H76.36ZM228.475 151.6C232.728 146.027 238.521 141.333 245.855 137.52C253.188 133.707 261.475 131.8 270.715 131.8C281.275 131.8 290.881 134.44 299.535 139.72C308.335 144.853 315.228 152.113 320.215 161.5C325.201 170.887 327.695 181.667 327.695 193.84C327.695 206.013 325.201 216.94 320.215 226.62C315.228 236.153 308.335 243.633 299.535 249.06C290.881 254.34 281.275 256.98 270.715 256.98C261.475 256.98 253.261 255.147 246.075 251.48C238.888 247.667 233.021 242.973 228.475 237.4V312.64H203.395V133.78H228.475V151.6ZM302.175 193.84C302.175 185.48 300.415 178.293 296.895 172.28C293.521 166.12 288.975 161.5 283.255 158.42C277.681 155.193 271.668 153.58 265.215 153.58C258.908 153.58 252.895 155.193 247.175 158.42C241.601 161.647 237.055 166.34 233.535 172.5C230.161 178.66 228.475 185.92 228.475 194.28C228.475 202.64 230.161 209.973 233.535 216.28C237.055 222.44 241.601 227.133 247.175 230.36C252.895 233.587 258.908 235.2 265.215 235.2C271.668 235.2 277.681 233.587 283.255 230.36C288.975 226.987 293.521 222.147 296.895 215.84C300.415 209.533 302.175 202.2 302.175 193.84ZM442.476 102.1V122.56H377.576V167.66H428.176V188.12H377.576V255H352.496V102.1H442.476ZM518.299 256.98C506.859 256.98 496.519 254.413 487.279 249.28C478.039 244 470.779 236.667 465.499 227.28C460.219 217.747 457.579 206.747 457.579 194.28C457.579 181.96 460.292 171.033 465.719 161.5C471.145 151.967 478.552 144.633 487.939 139.5C497.325 134.367 507.812 131.8 519.399 131.8C530.985 131.8 541.472 134.367 550.859 139.5C560.245 144.633 567.652 151.967 573.079 161.5C578.505 171.033 581.219 181.96 581.219 194.28C581.219 206.6 578.432 217.527 572.859 227.06C567.285 236.593 559.659 244 549.979 249.28C540.445 254.413 529.885 256.98 518.299 256.98ZM518.299 235.2C524.752 235.2 530.765 233.66 536.339 230.58C542.059 227.5 546.679 222.88 550.199 216.72C553.719 210.56 555.479 203.08 555.479 194.28C555.479 185.48 553.792 178.073 550.419 172.06C547.045 165.9 542.572 161.28 536.999 158.2C531.425 155.12 525.412 153.58 518.959 153.58C512.505 153.58 506.492 155.12 500.919 158.2C495.492 161.28 491.165 165.9 487.939 172.06C484.712 178.073 483.099 185.48 483.099 194.28C483.099 207.333 486.399 217.453 492.999 224.64C499.745 231.68 508.179 235.2 518.299 235.2ZM715.792 133.78V255H690.712V240.7C686.752 245.687 681.545 249.647 675.092 252.58C668.785 255.367 662.038 256.76 654.852 256.76C645.318 256.76 636.738 254.78 629.112 250.82C621.632 246.86 615.692 240.993 611.292 233.22C607.038 225.447 604.912 216.06 604.912 205.06V133.78H629.772V201.32C629.772 212.173 632.485 220.533 637.912 226.4C643.338 232.12 650.745 234.98 660.132 234.98C669.518 234.98 676.925 232.12 682.352 226.4C687.925 220.533 690.712 212.173 690.712 201.32V133.78H715.792ZM773.963 151.38C777.629 145.22 782.469 140.453 788.483 137.08C794.643 133.56 801.903 131.8 810.263 131.8V157.76H803.883C794.056 157.76 786.576 160.253 781.443 165.24C776.456 170.227 773.963 178.88 773.963 191.2V255H748.883V133.78H773.963V151.38ZM843.436 256.54C838.89 256.54 835.076 255 831.996 251.92C828.916 248.84 827.376 245.027 827.376 240.48C827.376 235.933 828.916 232.12 831.996 229.04C835.076 225.96 838.89 224.42 843.436 224.42C847.836 224.42 851.576 225.96 854.656 229.04C857.736 232.12 859.276 235.933 859.276 240.48C859.276 245.027 857.736 248.84 854.656 251.92C851.576 255 847.836 256.54 843.436 256.54Z" fill="#D50D3D"/>
<path d="M72.36 102.1V199.56C72.36 211.147 75.3667 219.873 81.38 225.74C87.54 231.607 96.0467 234.54 106.9 234.54C117.9 234.54 126.407 231.607 132.42 225.74C138.58 219.873 141.66 211.147 141.66 199.56V102.1H166.74V199.12C166.74 211.587 164.027 222.147 158.6 230.8C153.173 239.453 145.913 245.907 136.82 250.16C127.727 254.413 117.68 256.54 106.68 256.54C95.68 256.54 85.6333 254.413 76.54 250.16C67.5933 245.907 60.48 239.453 55.2 230.8C49.92 222.147 47.28 211.587 47.28 199.12V102.1H72.36ZM224.475 151.6C228.728 146.027 234.521 141.333 241.855 137.52C249.188 133.707 257.475 131.8 266.715 131.8C277.275 131.8 286.881 134.44 295.535 139.72C304.335 144.853 311.228 152.113 316.215 161.5C321.201 170.887 323.695 181.667 323.695 193.84C323.695 206.013 321.201 216.94 316.215 226.62C311.228 236.153 304.335 243.633 295.535 249.06C286.881 254.34 277.275 256.98 266.715 256.98C257.475 256.98 249.261 255.147 242.075 251.48C234.888 247.667 229.021 242.973 224.475 237.4V312.64H199.395V133.78H224.475V151.6ZM298.175 193.84C298.175 185.48 296.415 178.293 292.895 172.28C289.521 166.12 284.975 161.5 279.255 158.42C273.681 155.193 267.668 153.58 261.215 153.58C254.908 153.58 248.895 155.193 243.175 158.42C237.601 161.647 233.055 166.34 229.535 172.5C226.161 178.66 224.475 185.92 224.475 194.28C224.475 202.64 226.161 209.973 229.535 216.28C233.055 222.44 237.601 227.133 243.175 230.36C248.895 233.587 254.908 235.2 261.215 235.2C267.668 235.2 273.681 233.587 279.255 230.36C284.975 226.987 289.521 222.147 292.895 215.84C296.415 209.533 298.175 202.2 298.175 193.84Z" fill="#F4F4F4"/>
</g>
<defs>
<clipPath id="clip0">
<rect width="882" height="367" fill="white"/>
</clipPath>
</defs>
</svg>
